<svg width="118" height="40" viewBox="0 0 118 40" fill="none" xmlns="http://www.w3.org/2000/svg">
<g opacity="0.9">
<path d="M55.7969 13.6547H57.1396L58.1545 11.9314H64.1174L65.143 13.6547H66.4751L61.9289 6.25391H60.3536L55.7969 13.6547ZM58.7466 10.9481L61.1466 6.86711L63.536 10.9481H58.7466Z" fill="white"/>
<path d="M67.5084 13.6547H74.0951V12.6714H68.6925V6.25391H67.5084V13.6547Z" fill="white"/>
<path d="M76.5446 13.6547H77.7287V7.23715H81.4926V6.25391H72.7914V7.23715H76.5446V13.6547Z" fill="white"/>
<path d="M82.6445 13.6547H89.3897V12.6714H83.8286V10.3455H89.2946V9.44681H83.8286V7.23715H89.3897V6.25391H82.6445V13.6547Z" fill="white"/>
<path d="M91.2037 13.6547H92.3878L92.3772 10.4301H95.4221C96.8283 10.4301 97.1983 11.1913 98.5727 13.6547H99.8626C98.5516 11.2441 97.8644 10.1869 96.1622 10.0706H96.9445C98.3718 10.0706 99.3234 9.39395 99.3234 8.20982C99.3234 7.07856 98.4776 6.25391 96.9445 6.25391H91.2037V13.6547ZM92.3772 9.41509L92.3666 7.24772H96.5745C97.6741 7.24772 98.1392 7.59662 98.1392 8.40013C98.1392 9.00276 97.6952 9.41509 96.5745 9.41509H92.3772Z" fill="white"/>
<path d="M101.157 13.6547H107.902V12.6714H102.341V10.3455H107.807V9.44681H102.341V7.23715H107.902V6.25391H101.157V13.6547Z" fill="white"/>
<path d="M109.716 13.6547H113.163C115.827 13.6547 117.476 12.4071 117.476 9.95429C117.476 7.53318 115.837 6.25391 113.163 6.25391H109.716V13.6547ZM110.9 12.6714V7.23715H113.163C115.097 7.23715 116.408 8.27326 116.408 9.95429C116.408 11.6353 115.097 12.6714 113.163 12.6714H110.9Z" fill="white"/>
<path d="M59.9519 25.5507C62.3836 25.5507 64.0646 24.7683 64.0646 23.2564C64.0646 19.8627 57.2559 21.8291 57.2559 19.9472C57.2559 19.2072 58.1863 18.7948 59.9202 18.7948C61.5272 18.7948 62.6796 19.3658 62.669 20.3173H63.8849C63.8637 18.7843 62.2673 17.8116 59.8567 17.8116C57.6048 17.8116 56.04 18.594 56.04 20.0847C56.04 23.2353 62.8699 21.1314 62.8699 23.3093C62.8699 24.1551 61.8126 24.5569 59.8673 24.5674C58.2497 24.5674 57.0973 23.9859 57.1079 23.045H55.9026C55.8709 24.5357 57.4568 25.5507 59.9519 25.5507Z" fill="white"/>
<path d="M68.13 25.3815H69.3141V18.964H73.0779V17.9808H64.3767V18.964H68.13V25.3815Z" fill="white"/>
<path d="M71.7383 25.3815H73.081L74.0959 23.6582H80.0588L81.0844 25.3815H82.4165L77.8703 17.9808H76.295L71.7383 25.3815ZM74.688 22.6749L77.0879 18.594L79.4773 22.6749H74.688Z" fill="white"/>
<path d="M84.8251 25.3815H86.0092V18.964H89.773V17.9808H81.0718V18.964H84.8251V25.3815Z" fill="white"/>
<path d="M90.9249 25.3815H97.6702V24.3983H92.109V22.0723H97.575V21.1737H92.109V18.964H97.6702V17.9808H90.9249V25.3815Z" fill="white"/>
<path d="M56.3784 37.1084H57.5625V31.3992L60.9457 37.1084H61.1466L64.5192 31.3569V37.1084H65.7033V29.7076H64.2443L61.0408 35.3005L57.8479 29.7076H56.3784V37.1084Z" fill="white"/>
<path d="M66.7411 37.1084H68.0838L69.0988 35.385H75.0617L76.0872 37.1084H77.4193L72.8731 29.7076H71.2978L66.7411 37.1084ZM69.6908 34.4018L72.0908 30.3208L74.4802 34.4018H69.6908Z" fill="white"/>
<path d="M81.8087 37.2775C84.4835 37.2775 86.2703 35.9242 86.2703 33.8837H85.065C85.0121 35.3745 83.7117 36.2943 81.8087 36.2943C79.8422 36.2943 78.5312 35.1842 78.5312 33.408C78.5312 31.6212 79.8422 30.5217 81.8087 30.5217C83.7011 30.5217 85.0016 31.4309 85.065 32.9322H86.2703C86.2703 30.8917 84.4835 29.5384 81.8087 29.5384C79.1338 29.5384 77.3471 31.082 77.3471 33.408C77.3471 35.7339 79.1338 37.2775 81.8087 37.2775Z" fill="white"/>
<path d="M87.7036 37.1084H88.8877V33.7886H94.1845V37.1084H95.3687V29.7076H94.1845V32.8053H88.8877V29.7076H87.7036V37.1084Z" fill="white"/>
<path d="M97.3056 37.1084H98.4897V29.7076H97.3056V37.1084Z" fill="white"/>
<path d="M100.424 37.1084H101.608V31.156L107.507 37.1084H108.723V29.7076H107.539V35.6705L101.629 29.7076H100.424V37.1084Z" fill="white"/>
<path d="M110.645 37.1084H117.39V36.1251H111.829V33.7992H117.295V32.9005H111.829V30.6908H117.39V29.7076H110.645V37.1084Z" fill="white"/>
</g>
<g opacity="0.9">
<path d="M55.7969 13.6547H57.1396L58.1545 11.9314H64.1174L65.143 13.6547H66.4751L61.9289 6.25391H60.3536L55.7969 13.6547ZM58.7466 10.9481L61.1466 6.86711L63.536 10.9481H58.7466Z" fill="white"/>
<path d="M67.5084 13.6547H74.0951V12.6714H68.6925V6.25391H67.5084V13.6547Z" fill="white"/>
<path d="M76.5446 13.6547H77.7287V7.23715H81.4926V6.25391H72.7914V7.23715H76.5446V13.6547Z" fill="white"/>
<path d="M82.6445 13.6547H89.3897V12.6714H83.8286V10.3455H89.2946V9.44681H83.8286V7.23715H89.3897V6.25391H82.6445V13.6547Z" fill="white"/>
<path d="M91.2037 13.6547H92.3878L92.3772 10.4301H95.4221C96.8283 10.4301 97.1983 11.1913 98.5727 13.6547H99.8626C98.5516 11.2441 97.8644 10.1869 96.1622 10.0706H96.9445C98.3718 10.0706 99.3234 9.39395 99.3234 8.20982C99.3234 7.07856 98.4776 6.25391 96.9445 6.25391H91.2037V13.6547ZM92.3772 9.41509L92.3666 7.24772H96.5745C97.6741 7.24772 98.1392 7.59662 98.1392 8.40013C98.1392 9.00276 97.6952 9.41509 96.5745 9.41509H92.3772Z" fill="white"/>
<path d="M101.157 13.6547H107.902V12.6714H102.341V10.3455H107.807V9.44681H102.341V7.23715H107.902V6.25391H101.157V13.6547Z" fill="white"/>
<path d="M109.716 13.6547H113.163C115.827 13.6547 117.476 12.4071 117.476 9.95429C117.476 7.53318 115.837 6.25391 113.163 6.25391H109.716V13.6547ZM110.9 12.6714V7.23715H113.163C115.097 7.23715 116.408 8.27326 116.408 9.95429C116.408 11.6353 115.097 12.6714 113.163 12.6714H110.9Z" fill="white"/>
<path d="M59.9519 25.5507C62.3836 25.5507 64.0646 24.7683 64.0646 23.2564C64.0646 19.8627 57.2559 21.8291 57.2559 19.9472C57.2559 19.2072 58.1863 18.7948 59.9202 18.7948C61.5272 18.7948 62.6796 19.3658 62.669 20.3173H63.8849C63.8637 18.7843 62.2673 17.8116 59.8567 17.8116C57.6048 17.8116 56.04 18.594 56.04 20.0847C56.04 23.2353 62.8699 21.1314 62.8699 23.3093C62.8699 24.1551 61.8126 24.5569 59.8673 24.5674C58.2497 24.5674 57.0973 23.9859 57.1079 23.045H55.9026C55.8709 24.5357 57.4568 25.5507 59.9519 25.5507Z" fill="white"/>
<path d="M68.13 25.3815H69.3141V18.964H73.0779V17.9808H64.3767V18.964H68.13V25.3815Z" fill="white"/>
<path d="M71.7383 25.3815H73.081L74.0959 23.6582H80.0588L81.0844 25.3815H82.4165L77.8703 17.9808H76.295L71.7383 25.3815ZM74.688 22.6749L77.0879 18.594L79.4773 22.6749H74.688Z" fill="white"/>
<path d="M84.8251 25.3815H86.0092V18.964H89.773V17.9808H81.0718V18.964H84.8251V25.3815Z" fill="white"/>
<path d="M90.9249 25.3815H97.6702V24.3983H92.109V22.0723H97.575V21.1737H92.109V18.964H97.6702V17.9808H90.9249V25.3815Z" fill="white"/>
<path d="M56.3784 37.1084H57.5625V31.3992L60.9457 37.1084H61.1466L64.5192 31.3569V37.1084H65.7033V29.7076H64.2443L61.0408 35.3005L57.8479 29.7076H56.3784V37.1084Z" fill="white"/>
<path d="M66.7411 37.1084H68.0838L69.0988 35.385H75.0617L76.0872 37.1084H77.4193L72.8731 29.7076H71.2978L66.7411 37.1084ZM69.6908 34.4018L72.0908 30.3208L74.4802 34.4018H69.6908Z" fill="white"/>
<path d="M81.8087 37.2775C84.4835 37.2775 86.2703 35.9242 86.2703 33.8837H85.065C85.0121 35.3745 83.7117 36.2943 81.8087 36.2943C79.8422 36.2943 78.5312 35.1842 78.5312 33.408C78.5312 31.6212 79.8422 30.5217 81.8087 30.5217C83.7011 30.5217 85.0016 31.4309 85.065 32.9322H86.2703C86.2703 30.8917 84.4835 29.5384 81.8087 29.5384C79.1338 29.5384 77.3471 31.082 77.3471 33.408C77.3471 35.7339 79.1338 37.2775 81.8087 37.2775Z" fill="white"/>
<path d="M87.7036 37.1084H88.8877V33.7886H94.1845V37.1084H95.3687V29.7076H94.1845V32.8053H88.8877V29.7076H87.7036V37.1084Z" fill="white"/>
<path d="M97.3056 37.1084H98.4897V29.7076H97.3056V37.1084Z" fill="white"/>
<path d="M100.424 37.1084H101.608V31.156L107.507 37.1084H108.723V29.7076H107.539V35.6705L101.629 29.7076H100.424V37.1084Z" fill="white"/>
<path d="M110.645 37.1084H117.39V36.1251H111.829V33.7992H117.295V32.9005H111.829V30.6908H117.39V29.7076H110.645V37.1084Z" fill="white"/>
</g>
<path d="M21.4614 39.9958C17.031 39.9958 12.6103 38.5836 9.01284 36.0226C5.45133 33.4855 2.70361 29.8665 1.2747 25.8359C0.638031 24.0456 0.245495 22.2983 0.104279 20.642C0.0947052 20.5367 0.0851301 20.4242 0.0731626 20.3093C0.00135792 19.5961 -0.0872082 18.7105 0.18565 18.0164C0.496803 17.2241 1.20528 16.5252 2.03343 16.1949C3.53176 15.5941 4.79074 16.3481 5.89892 17.0135L5.93961 17.0374C8.53654 18.5956 11.5954 19.4213 14.7836 19.4213C19.5873 19.4213 24.4796 17.3629 27.5456 14.0503C27.7395 13.8421 27.9238 13.6339 28.1081 13.428C28.9243 12.5137 29.695 11.6473 30.875 10.9962C33.4145 9.59366 36.5595 9.6894 39.0822 11.2476C40.334 12.0207 41.3465 13.1073 42.0143 14.3902C42.5911 15.4984 42.8783 16.8124 42.9166 18.5214C42.9262 18.9259 42.9214 19.3495 42.9047 19.8139C42.6797 26.001 39.2426 32.205 33.9338 36.0034C30.3316 38.5788 25.9013 39.9982 21.459 39.9982L21.4614 39.9958ZM3.14879 16.9321C2.90226 16.9321 2.65095 16.9776 2.39006 17.0829C1.81562 17.3127 1.28906 17.8297 1.07604 18.3682C0.88695 18.8469 0.963534 19.6056 1.02337 20.216C1.03534 20.3356 1.04731 20.4529 1.05688 20.563C1.19092 22.1379 1.56669 23.8062 2.17464 25.5199C3.53893 29.3663 6.16459 32.8225 9.56573 35.2471C13.0004 37.6956 17.2249 39.0432 21.459 39.0432C25.6931 39.0432 29.9343 37.6884 33.3762 35.2279C38.448 31.5994 41.7318 25.6803 41.9473 19.7827C41.964 19.3352 41.9688 18.9331 41.9592 18.5477C41.9233 16.9872 41.672 15.8096 41.1646 14.8354C40.5758 13.7057 39.6806 12.7459 38.5772 12.0637C36.3824 10.709 33.5389 10.6181 31.3369 11.8364C30.2981 12.4084 29.5825 13.215 28.8214 14.0671C28.6347 14.2777 28.4456 14.4883 28.2469 14.7038C25.0038 18.2078 19.8434 20.3835 14.7812 20.3835C11.4207 20.3835 8.19188 19.5123 5.44415 17.8656L5.40347 17.8416C4.61122 17.3653 3.89796 16.9393 3.14401 16.9393L3.14879 16.9321Z" fill="white"/>
<path d="M21.4591 30.7775C14.7094 30.7775 9.21875 25.2868 9.21875 18.5372C9.21875 11.7875 14.7094 6.29688 21.4591 6.29688C28.2087 6.29688 33.6994 11.7875 33.6994 18.5372C33.6994 25.2868 28.2087 30.7775 21.4591 30.7775ZM21.4591 7.25427C15.2384 7.25427 10.1761 12.3165 10.1761 18.5372C10.1761 24.7579 15.2384 29.8201 21.4591 29.8201C27.6797 29.8201 32.742 24.7579 32.742 18.5372C32.742 12.3165 27.6797 7.25427 21.4591 7.25427Z" fill="white"/>
<path d="M8.04908 6.29727C7.80016 6.29727 7.53687 6.27094 7.26162 6.21829C6.33534 6.04117 5.40667 5.57683 4.83463 5.00718C3.69054 3.86309 3.69054 2.00335 4.83463 0.859263C5.38752 0.306367 6.12471 0 6.90738 0C7.69005 0 8.42726 0.303973 8.98015 0.859263C9.5522 1.43131 10.0165 2.35998 10.1913 3.28626C10.3899 4.32743 10.2104 5.18909 9.68622 5.71326C9.30087 6.09861 8.73362 6.29727 8.04669 6.29727H8.04908ZM6.90978 0.957396C6.38321 0.957396 5.88536 1.16324 5.51437 1.53662C4.74367 2.30732 4.74367 3.55912 5.51437 4.32982C5.94999 4.76544 6.70633 5.13882 7.44352 5.27764C8.14242 5.40929 8.72883 5.32073 9.01365 5.0359C9.29848 4.75108 9.38943 4.16467 9.2554 3.46577C9.11657 2.73097 8.7432 1.97224 8.30758 1.53662C7.9342 1.16324 7.43874 0.957396 6.91218 0.957396H6.90978Z" fill="white"/>
</svg>
