<svg width="20" height="20" viewBox="0 0 20 20" fill="none" xmlns="http://www.w3.org/2000/svg">
<mask id="mask0_1615_8179" style="mask-type:alpha" maskUnits="userSpaceOnUse" x="0" y="0" width="20" height="20">
<rect width="20" height="20" fill="#D9D9D9"/>
</mask>
<g mask="url(#mask0_1615_8179)">
<path d="M4.67964 16.6654C4.2961 16.6654 3.97586 16.5369 3.71891 16.2799C3.46197 16.023 3.3335 15.7028 3.3335 15.3192V4.67818C3.3335 4.29464 3.46197 3.97439 3.71891 3.71745C3.97586 3.4605 4.2961 3.33203 4.67964 3.33203H9.35914V4.16536H4.67964C4.55145 4.16536 4.43393 4.21878 4.32708 4.32561C4.22025 4.43246 4.16683 4.54998 4.16683 4.67818V15.3192C4.16683 15.4474 4.22025 15.5649 4.32708 15.6718C4.43393 15.7786 4.55145 15.832 4.67964 15.832H15.3207C15.4489 15.832 15.5664 15.7786 15.6732 15.6718C15.7801 15.5649 15.8335 15.4474 15.8335 15.3192V10.6397H16.6668V15.3192C16.6668 15.7028 16.5384 16.023 16.2814 16.2799C16.0245 16.5369 15.7042 16.6654 15.3207 16.6654H4.67964ZM8.11554 12.4731L7.52581 11.8833L15.2437 4.16536H11.6668V3.33203H16.6668V8.33203H15.8335V4.75511L8.11554 12.4731Z" fill="white"/>
</g>
</svg>
