<svg width="30" viewBox="0 0 30 30" fill="none" xmlns="http://www.w3.org/2000/svg">
  <mask id="a" style="mask-type:alpha" maskUnits="userSpaceOnUse" x="0" y="0" width="32" height="32">
    <path fill="#D9D9D9" d="M0 0h32v32H0z"/>
  </mask>
  <g mask="url(#a)">
    <path d="m14.133 22.135 9.4-9.4-1.867-1.867-7.533 7.533-3.8-3.8-1.867 1.867 5.667 5.667Zm1.866 7.2c-1.844 0-3.577-.35-5.2-1.051a13.457 13.457 0 0 1-4.233-2.85c-1.2-1.2-2.15-2.61-2.85-4.233-.7-1.622-1.05-3.355-1.05-5.2 0-1.844.35-3.578 1.05-5.2.7-1.622 1.65-3.033 2.85-4.233 1.2-1.2 2.611-2.15 4.233-2.85 1.623-.7 3.356-1.05 5.2-1.05 1.845 0 3.578.35 5.2 1.05 1.623.7 3.034 1.65 4.234 2.85 1.2 1.2 2.15 2.611 2.849 4.233.7 1.623 1.05 3.356 1.05 5.2 0 1.845-.35 3.578-1.05 5.2a13.455 13.455 0 0 1-2.85 4.234c-1.2 1.2-2.61 2.15-4.233 2.849-1.622.7-3.355 1.05-5.2 1.05Z" fill="#E26EEA"/>
  </g>
</svg>