<svg width="509" viewBox="0 0 509 1682" fill="none" xmlns="http://www.w3.org/2000/svg">
  <g opacity=".3">
    <path d="M444.5 17.5v359.294a120.001 120.001 0 0 1-35.147 84.853L160.647 710.353a120.001 120.001 0 0 0-35.147 84.853V1078c0 66.27 53.726 120 120 120h184.75c43.216 0 78.25 35.03 78.25 78.25s-35.034 78.25-78.25 78.25h-225.5c-43.769 0-79.25 35.48-79.25 79.25s35.481 79.25 79.25 79.25h219.5c46.53 0 84.25 37.72 84.25 84.25s-37.72 84.25-84.25 84.25H-42" stroke="#fff"/>
    <path d="M444.5 17.5v359.294a120.001 120.001 0 0 1-35.147 84.853L160.647 710.353a120.001 120.001 0 0 0-35.147 84.853V1078c0 66.27 53.726 120 120 120h184.75c43.216 0 78.25 35.03 78.25 78.25s-35.034 78.25-78.25 78.25h-225.5c-43.769 0-79.25 35.48-79.25 79.25s35.481 79.25 79.25 79.25h219.5c46.53 0 84.25 37.72 84.25 84.25s-37.72 84.25-84.25 84.25H-42" stroke="url(#a)"/>
  </g>
  <circle cx="445" cy="18" r="17.5" fill="#070707" stroke="#6A6A6A"/>
  <defs>
    <linearGradient id="a" x1="233.25" y1="1720" x2="233.25" y2="645" gradientUnits="userSpaceOnUse">
      <stop stop-color="#070707"/>
      <stop offset="1" stop-color="#070707" stop-opacity="0"/>
    </linearGradient>
  </defs>
</svg>