<svg width="516" viewBox="0 0 516 2435" fill="none" xmlns="http://www.w3.org/2000/svg">
  <path opacity=".3" d="M497.5 96v316.794a120.001 120.001 0 0 1-35.147 84.853L295.147 664.853A120.001 120.001 0 0 0 260 749.706V1643" stroke="#fff"/>
  <path d="M497.5 19.5v393.522a119.996 119.996 0 0 1-34.873 84.577L224.873 736.901A119.996 119.996 0 0 0 190 821.478v550.312a120.02 120.02 0 0 1-35.147 84.86l-119.206 119.2A120.02 120.02 0 0 0 .5 1660.71v199.58a120.02 120.02 0 0 0 35.147 84.86l351.206 351.2A120.02 120.02 0 0 1 422 2381.21v53.29" stroke="#E26EEA"/>
  <path d="M497.5 19.5v393.522a119.996 119.996 0 0 1-34.873 84.577L224.873 736.901A119.996 119.996 0 0 0 190 821.478v550.312a120.02 120.02 0 0 1-35.147 84.86l-119.206 119.2A120.02 120.02 0 0 0 .5 1660.71v199.58a120.02 120.02 0 0 0 35.147 84.86l351.206 351.2A120.02 120.02 0 0 1 422 2381.21v53.29" stroke="url(#a)"/>
  <circle cx="498" cy="18" r="17.5" fill="#070707" stroke="#E26EEA"/>
  <circle cx="260" cy="1643" r="17.5" fill="#070707" stroke="#6A6A6A"/>
  <defs>
    <linearGradient id="a" x1="1" y1="2500.5" x2="1" y2="1516" gradientUnits="userSpaceOnUse">
      <stop stop-color="#070707"/>
      <stop offset="1" stop-color="#070707" stop-opacity="0"/>
    </linearGradient>
  </defs>
</svg>