<svg width="100" viewBox="0 0 100 38" fill="none" xmlns="http://www.w3.org/2000/svg">
  <path d="M93.655 19.929c0-2.824.014-5.646-.011-8.47-.005-.572.189-.724.733-.71 1.306.032 2.612.02 3.918.004.464-.005.644.16.641.642-.011 5.684-.009 11.37.005 17.054 0 .503-.185.692-.67.688-1.323-.012-2.65-.021-3.974.006-.524.012-.65-.207-.649-.687.017-2.843.007-5.685.007-8.527Z" fill="#fff"/>
  <path d="M98.563 1.05h-4.42a.438.438 0 0 0-.439.438v4.42c0 .242.196.439.438.439h4.42a.438.438 0 0 0 .44-.439v-4.42a.438.438 0 0 0-.44-.438Z" fill="#E26EEA"/>
  <path d="M65.493.739c0-.544-.147-.754-.713-.738-1.269.034-2.538.009-3.807.014-.759.002-.76.007-.76.78v11.42c0 .196-.024.392-.047.75-.24-.268-.37-.402-.49-.545a5.864 5.864 0 0 0-2.454-1.76c-3.265-1.23-7.044-.072-9.212 2.918-2.416 3.33-2.651 6.993-1.237 10.745 1.407 3.726 4.441 5.574 8.398 5.302 1.931-.134 3.553-.923 4.755-2.485.1-.13.22-.242.33-.362.065.011.127.025.191.037 0 .565.019 1.128-.004 1.693-.019.45.159.616.607.611 1.25-.018 2.498-.025 3.749.003.526.011.699-.162.699-.697-.014-9.229-.014-18.455 0-27.684L65.493.74Zm-7.609 23.784c-2.692 1.316-5.786-.186-6.434-3.112-.483-2.17-.15-4.18 1.693-5.622 2.762-2.162 6.834-.363 7.279 3.165.042.323.046.65.07 1.001-.042 1.98-.72 3.648-2.605 4.569h-.003ZM88.794.739c0-.544-.147-.754-.713-.738-1.269.034-2.538.009-3.806.014-.76.002-.762.007-.762.78v11.42c0 .196-.023.392-.046.75-.24-.268-.37-.402-.49-.545a5.864 5.864 0 0 0-2.454-1.76c-3.264-1.23-7.044-.072-9.212 2.918-2.416 3.33-2.651 6.993-1.237 10.745 1.407 3.726 4.441 5.574 8.398 5.302 1.931-.134 3.553-.923 4.755-2.485.1-.13.22-.242.33-.362.065.011.127.025.192.037 0 .565.018 1.128-.005 1.693-.019.45.16.616.607.611 1.25-.018 2.498-.025 3.749.003.526.011.699-.162.699-.697a9255.8 9255.8 0 0 1 0-27.684L88.794.74Zm-7.609 23.784c-2.692 1.316-5.786-.186-6.434-3.112-.483-2.17-.15-4.18 1.693-5.622 2.762-2.162 6.834-.363 7.28 3.165.04.323.045.65.068 1.001-.041 1.98-.72 3.648-2.605 4.569h-.002ZM42.028 11.396c0-.483-.178-.644-.644-.637-1.19.018-2.383.004-3.576.007-.77 0-.812.057-.812.819 0 .496-.037.992-.058 1.488a1.323 1.323 0 0 1-.503-.422c-1.066-1.348-2.473-2.15-4.153-2.365-3.477-.44-6.158.939-8.077 3.804-1.853 2.767-2.084 5.837-1.313 8.975.962 3.91 4.014 6.758 8.297 6.596 2.198-.083 4.044-.823 5.373-2.646.065-.088.15-.162.226-.242l.203.023c0 .547.016 1.096-.005 1.643-.018.484.157.694.67.685a93.662 93.662 0 0 1 3.69 0c.488.009.684-.139.682-.655-.014-5.69-.012-11.38 0-17.069v-.004Zm-5.923 11.718c-1.082 1.573-2.955 2.187-4.958 1.684-1.643-.413-3.002-1.982-3.237-3.747-.044-.323-.062-.65-.088-.92-.007-2.08.635-3.791 2.522-4.758 2.54-1.301 5.526-.055 6.393 2.667.56 1.76.445 3.505-.634 5.074h.002ZM18.379 14.863c-1.724-3.812-5.397-5.335-9.388-4.41-1.624.377-2.872 1.332-3.772 2.746-.058-.011-.118-.02-.176-.032-.032-.602-.085-1.205-.092-1.807-.004-.443-.187-.611-.63-.604-1.23.018-2.46.018-3.689 0-.475-.007-.632.175-.632.648.01 8.629.012 17.255 0 25.884 0 .498.198.618.653.611 1.287-.02 2.575-.007 3.862-.009.757 0 .773-.016.773-.775 0-3.112 0-6.227.005-9.34 0-.195.025-.392.048-.738.242.254.353.411.5.52.757.544 1.457 1.234 2.296 1.587 3.161 1.322 6.977.224 9.127-2.63 2.737-3.634 2.933-7.628 1.115-11.651Zm-4.896 7.925c-.863 1.432-2.162 2.131-3.523 2.17-2.365.033-4.116-1.167-4.695-3.151-.628-2.146-.42-4.188 1.313-5.791 1.336-1.234 2.974-1.428 4.637-.83 1.654.592 2.575 1.87 2.882 3.594.251 1.407.133 2.764-.619 4.008h.005Z" fill="#fff"/>
</svg>