<svg width="190" viewBox="0 0 190 40" fill="none" xmlns="http://www.w3.org/2000/svg">
  <g opacity=".9" fill="#fff">
    <path d="M55.797 13.655h1.343l1.014-1.724h5.963l1.026 1.724h1.332L61.93 6.254h-1.575l-4.557 7.4Zm2.95-2.707 2.4-4.08 2.389 4.08h-4.79ZM67.508 13.655h6.587v-.984h-5.403V6.254h-1.184v7.4ZM76.545 13.655h1.184V7.237h3.764v-.983H72.79v.983h3.754v6.418ZM82.644 13.655h6.746v-.984h-5.561v-2.325h5.466v-.9h-5.466V7.238h5.56v-.983h-6.745v7.4ZM91.204 13.655h1.184l-.01-3.225h3.044c1.406 0 1.776.761 3.15 3.225h1.29c-1.31-2.41-1.998-3.468-3.7-3.584h.782c1.428 0 2.38-.677 2.38-1.861 0-1.131-.846-1.956-2.38-1.956h-5.74v7.4Zm1.173-4.24-.01-2.167h4.207c1.1 0 1.565.349 1.565 1.152 0 .603-.444 1.015-1.564 1.015h-4.198ZM101.157 13.655h6.745v-.984h-5.561v-2.325h5.466v-.9h-5.466V7.238h5.561v-.983h-6.745v7.4ZM109.716 13.655h3.447c2.664 0 4.313-1.248 4.313-3.7 0-2.422-1.639-3.701-4.313-3.701h-3.447v7.4Zm1.184-.984V7.237h2.263c1.934 0 3.245 1.036 3.245 2.717s-1.311 2.717-3.245 2.717H110.9ZM59.952 25.55c2.432 0 4.113-.782 4.113-2.294 0-3.393-6.81-1.427-6.81-3.309 0-.74.931-1.152 2.665-1.152 1.607 0 2.76.57 2.749 1.522h1.216c-.021-1.533-1.618-2.505-4.028-2.505-2.252 0-3.817.782-3.817 2.273 0 3.15 6.83 1.046 6.83 3.224 0 .846-1.057 1.248-3.003 1.258-1.617 0-2.77-.581-2.76-1.522h-1.204c-.032 1.49 1.554 2.506 4.049 2.506ZM68.13 25.381h1.184v-6.417h3.764v-.983h-8.701v.983h3.753v6.418ZM71.738 25.381h1.343l1.015-1.723h5.963l1.025 1.723h1.332l-4.546-7.4h-1.575l-4.557 7.4Zm2.95-2.706 2.4-4.081 2.39 4.08h-4.79ZM84.825 25.381h1.184v-6.417h3.764v-.983h-8.701v.983h3.753v6.418ZM90.925 25.381h6.745v-.983H92.11v-2.326h5.466v-.898h-5.466v-2.21h5.561v-.983h-6.745v7.4ZM56.378 37.108h1.184V31.4l3.384 5.71h.2l3.373-5.752v5.751h1.184v-7.4h-1.459L61.041 35.3l-3.193-5.593h-1.47v7.4ZM66.741 37.108h1.343l1.015-1.723h5.963l1.025 1.723h1.332l-4.546-7.4h-1.575l-4.557 7.4Zm2.95-2.706 2.4-4.081 2.39 4.08h-4.79ZM81.809 37.278c2.675 0 4.461-1.354 4.461-3.394h-1.205c-.053 1.49-1.353 2.41-3.256 2.41-1.967 0-3.278-1.11-3.278-2.886 0-1.787 1.311-2.886 3.278-2.886 1.892 0 3.193.909 3.256 2.41h1.205c0-2.04-1.786-3.394-4.461-3.394-2.675 0-4.462 1.544-4.462 3.87s1.787 3.87 4.462 3.87ZM87.704 37.108h1.184v-3.32h5.296v3.32h1.185v-7.4h-1.184v3.097h-5.297v-3.097h-1.184v7.4ZM97.306 37.108h1.184v-7.4h-1.184v7.4ZM100.424 37.108h1.184v-5.952l5.899 5.952h1.216v-7.4h-1.184v5.962l-5.91-5.962h-1.205v7.4ZM110.645 37.108h6.745v-.983h-5.561V33.8h5.466v-.898h-5.466v-2.21h5.561v-.983h-6.745v7.4Z"/>
  </g>
  <g opacity=".9" fill="#fff">
    <path d="M55.797 13.655h1.343l1.014-1.724h5.963l1.026 1.724h1.332L61.93 6.254h-1.575l-4.557 7.4Zm2.95-2.707 2.4-4.08 2.389 4.08h-4.79ZM67.508 13.655h6.587v-.984h-5.403V6.254h-1.184v7.4ZM76.545 13.655h1.184V7.237h3.764v-.983H72.79v.983h3.754v6.418ZM82.644 13.655h6.746v-.984h-5.561v-2.325h5.466v-.9h-5.466V7.238h5.56v-.983h-6.745v7.4ZM91.204 13.655h1.184l-.01-3.225h3.044c1.406 0 1.776.761 3.15 3.225h1.29c-1.31-2.41-1.998-3.468-3.7-3.584h.782c1.428 0 2.38-.677 2.38-1.861 0-1.131-.846-1.956-2.38-1.956h-5.74v7.4Zm1.173-4.24-.01-2.167h4.207c1.1 0 1.565.349 1.565 1.152 0 .603-.444 1.015-1.564 1.015h-4.198ZM101.157 13.655h6.745v-.984h-5.561v-2.325h5.466v-.9h-5.466V7.238h5.561v-.983h-6.745v7.4ZM109.716 13.655h3.447c2.664 0 4.313-1.248 4.313-3.7 0-2.422-1.639-3.701-4.313-3.701h-3.447v7.4Zm1.184-.984V7.237h2.263c1.934 0 3.245 1.036 3.245 2.717s-1.311 2.717-3.245 2.717H110.9ZM59.952 25.55c2.432 0 4.113-.782 4.113-2.294 0-3.393-6.81-1.427-6.81-3.309 0-.74.931-1.152 2.665-1.152 1.607 0 2.76.57 2.749 1.522h1.216c-.021-1.533-1.618-2.505-4.028-2.505-2.252 0-3.817.782-3.817 2.273 0 3.15 6.83 1.046 6.83 3.224 0 .846-1.057 1.248-3.003 1.258-1.617 0-2.77-.581-2.76-1.522h-1.204c-.032 1.49 1.554 2.506 4.049 2.506ZM68.13 25.381h1.184v-6.417h3.764v-.983h-8.701v.983h3.753v6.418ZM71.738 25.381h1.343l1.015-1.723h5.963l1.025 1.723h1.332l-4.546-7.4h-1.575l-4.557 7.4Zm2.95-2.706 2.4-4.081 2.39 4.08h-4.79ZM84.825 25.381h1.184v-6.417h3.764v-.983h-8.701v.983h3.753v6.418ZM90.925 25.381h6.745v-.983H92.11v-2.326h5.466v-.898h-5.466v-2.21h5.561v-.983h-6.745v7.4ZM56.378 37.108h1.184V31.4l3.384 5.71h.2l3.373-5.752v5.751h1.184v-7.4h-1.459L61.041 35.3l-3.193-5.593h-1.47v7.4ZM66.741 37.108h1.343l1.015-1.723h5.963l1.025 1.723h1.332l-4.546-7.4h-1.575l-4.557 7.4Zm2.95-2.706 2.4-4.081 2.39 4.08h-4.79ZM81.809 37.278c2.675 0 4.461-1.354 4.461-3.394h-1.205c-.053 1.49-1.353 2.41-3.256 2.41-1.967 0-3.278-1.11-3.278-2.886 0-1.787 1.311-2.886 3.278-2.886 1.892 0 3.193.909 3.256 2.41h1.205c0-2.04-1.786-3.394-4.461-3.394-2.675 0-4.462 1.544-4.462 3.87s1.787 3.87 4.462 3.87ZM87.704 37.108h1.184v-3.32h5.296v3.32h1.185v-7.4h-1.184v3.097h-5.297v-3.097h-1.184v7.4ZM97.306 37.108h1.184v-7.4h-1.184v7.4ZM100.424 37.108h1.184v-5.952l5.899 5.952h1.216v-7.4h-1.184v5.962l-5.91-5.962h-1.205v7.4ZM110.645 37.108h6.745v-.983h-5.561V33.8h5.466v-.898h-5.466v-2.21h5.561v-.983h-6.745v7.4Z"/>
  </g>
  <path d="M21.461 39.999a21.64 21.64 0 0 1-12.448-3.974C5.45 33.489 2.703 29.87 1.275 25.84.638 24.049.245 22.3.105 20.645l-.032-.333c-.072-.713-.16-1.599.113-2.293.31-.792 1.02-1.49 1.847-1.821 1.499-.6 2.758.153 3.866.818l.04.024c2.598 1.559 5.656 2.384 8.845 2.384 4.803 0 9.696-2.058 12.762-5.37.194-.209.378-.417.562-.623.816-.914 1.587-1.78 2.767-2.432 2.54-1.402 5.684-1.307 8.207.252a8.093 8.093 0 0 1 2.932 3.142c.577 1.108.864 2.422.903 4.131.01.405.004.828-.012 1.293-.225 6.187-3.662 12.39-8.971 16.19A21.62 21.62 0 0 1 21.459 40l.002-.002ZM3.15 16.935c-.247 0-.498.046-.759.15-.574.23-1.1.748-1.314 1.286-.19.479-.112 1.238-.053 1.848l.034.347c.134 1.575.51 3.243 1.118 4.957 1.364 3.846 3.99 7.302 7.39 9.727a20.653 20.653 0 0 0 11.894 3.796c4.234 0 8.475-1.355 11.917-3.815 5.072-3.629 8.356-9.548 8.571-15.445.017-.448.022-.85.012-1.235-.036-1.56-.287-2.738-.794-3.713a7.158 7.158 0 0 0-2.588-2.771c-2.195-1.355-5.038-1.446-7.24-.228-1.039.572-1.755 1.379-2.516 2.231-.186.21-.375.421-.574.637-3.243 3.504-8.404 5.68-13.466 5.68-3.36 0-6.59-.872-9.337-2.518l-.04-.024c-.793-.477-1.506-.903-2.26-.903l.005-.007Z" fill="#fff"/>
  <path d="M21.46 30.776c-6.75 0-12.241-5.49-12.241-12.24s5.49-12.24 12.24-12.24 12.24 5.49 12.24 12.24-5.49 12.24-12.24 12.24Zm0-23.523c-6.222 0-11.284 5.063-11.284 11.283S15.238 29.82 21.46 29.82c6.22 0 11.283-5.062 11.283-11.283 0-6.22-5.062-11.283-11.283-11.283ZM8.05 6.298a4.2 4.2 0 0 1-.788-.079c-.927-.177-1.855-.641-2.427-1.21A2.935 2.935 0 0 1 6.907 0c.783 0 1.52.304 2.073.86.572.571 1.037 1.5 1.211 2.426.199 1.041.02 1.903-.505 2.427-.385.386-.952.584-1.64.584h.003ZM6.91.958A1.976 1.976 0 0 0 5.515 4.33c.435.436 1.191.81 1.929.949.698.131 1.285.043 1.57-.242.284-.285.375-.871.241-1.57-.138-.735-.512-1.494-.947-1.93A1.961 1.961 0 0 0 6.912.959H6.91Z" fill="#fff"/>
  <path d="M141.476 3.251v33.5" stroke="#fff"/>
  <path d="m188.909 27.189-5.977-8.964h.166a4.054 4.054 0 0 0 4.056-4.057v-5.69a3.973 3.973 0 0 0-3.971-3.976h-16.687a.451.451 0 0 0-.451.451V9.77c0 .249.202.451.451.451h13.003c.25 0 .452.203.452.452v1.897c0 .25-.202.452-.452.452H166.45a.405.405 0 0 0-.405.406v13.797H173.243l.004-9h1.347c.15 0 .29.075.374.2l5.878 8.8h4.877v-.001l2.429-.001v.002h.755v-.036h.002Z" fill="#fff"/>
  <path d="M166.624 30.97v-3.747h-.58v3.747a.836.836 0 0 0-.568.783c0 .462.384.837.858.837a.847.847 0 0 0 .859-.837.836.836 0 0 0-.569-.783ZM173.24 30.97l.002-3.747h-.582v3.747a.835.835 0 0 0-.567.783c0 .462.384.837.858.837a.847.847 0 0 0 .858-.837.836.836 0 0 0-.568-.783h-.001ZM169.933 33.88v-6.657h-.58v6.657a.836.836 0 0 0-.569.784c0 .462.385.836.859.836a.847.847 0 0 0 .858-.836.835.835 0 0 0-.568-.784ZM181.426 30.97v-3.747h-.581v3.747a.836.836 0 0 0-.568.783c0 .462.384.837.858.837a.847.847 0 0 0 .859-.837.836.836 0 0 0-.568-.783ZM188.909 30.97v-3.747h-.58v3.747a.836.836 0 0 0-.568.783c0 .462.384.837.858.837a.847.847 0 0 0 .859-.837.836.836 0 0 0-.569-.783ZM185.131 33.88v-6.657h-.58v6.657a.836.836 0 0 0-.568.783c0 .462.384.837.859.837a.847.847 0 0 0 .858-.837.836.836 0 0 0-.569-.783Z" fill="#fff"/>
</svg>