<svg width="25" height="32" viewBox="0 0 25 32" fill="none" xmlns="http://www.w3.org/2000/svg">
<path d="M23.9088 23.1869L17.9321 14.2236L18.0978 14.2225C20.3373 14.2252 22.1536 12.4083 22.1536 10.1664V4.47542C22.1536 2.27988 20.376 0.5 18.1829 0.5H1.49619C1.24704 0.5 1.04492 0.702371 1.04492 0.951653V5.76711C1.04492 6.01639 1.24704 6.21876 1.49619 6.21876H14.4995C14.7486 6.21876 14.9507 6.42113 14.9507 6.67041V8.56758C14.9507 8.8174 14.7486 9.01977 14.4995 9.01977H1.44972C1.22632 9.01977 1.04492 9.20087 1.04492 9.42506V23.2229H1.8002H8.24333L8.24725 14.2225H9.59377C9.74437 14.2225 9.88434 14.2972 9.96833 14.4222L15.8465 23.2229H17.5391L19.9678 23.2218V23.2229H20.7231V23.2212L23.1519 23.2201V23.2223H23.9072V23.1863L23.9088 23.1869Z" fill="white"/>
<path d="M1.62488 26.969V23.2227H1.04484V26.969C0.714513 27.0852 0.476562 27.3906 0.476562 27.7528C0.476562 28.2143 0.860642 28.589 1.33486 28.589C1.80908 28.589 2.19316 28.2148 2.19316 27.7528C2.19316 27.3906 1.95577 27.0852 1.62488 26.969Z" fill="white"/>
<path d="M8.23997 26.969L8.24165 23.2227H7.65993V26.9695C7.33016 27.0857 7.09277 27.3912 7.09277 27.7528C7.09277 28.2143 7.47685 28.589 7.95107 28.589C8.42529 28.589 8.80937 28.2148 8.80937 27.7528C8.80937 27.3906 8.57142 27.0852 8.24053 26.969H8.23997Z" fill="white"/>
<path d="M4.93348 29.8796V23.2227H4.35344V29.8796C4.02311 29.9958 3.78516 30.3013 3.78516 30.6635C3.78516 31.125 4.16924 31.4997 4.64346 31.4997C5.11768 31.4997 5.50176 31.1255 5.50176 30.6635C5.50176 30.3013 5.26437 29.9958 4.93348 29.8796Z" fill="white"/>
<path d="M16.4257 26.969V23.2227H15.8456V26.969C15.5153 27.0852 15.2773 27.3906 15.2773 27.7528C15.2773 28.2143 15.6614 28.589 16.1356 28.589C16.6099 28.589 16.9939 28.2148 16.9939 27.7528C16.9939 27.3906 16.7566 27.0852 16.4257 26.969Z" fill="white"/>
<path d="M23.91 26.969V23.2227H23.33V26.969C22.9997 27.0852 22.7617 27.3906 22.7617 27.7528C22.7617 28.2143 23.1458 28.589 23.62 28.589C24.0942 28.589 24.4783 28.2148 24.4783 27.7528C24.4783 27.3906 24.2409 27.0852 23.91 26.969Z" fill="white"/>
<path d="M20.1312 29.8796V23.2227H19.5511V29.8796C19.2208 29.9958 18.9834 30.3013 18.9834 30.6629C18.9834 31.1244 19.3675 31.4991 19.8417 31.4991C20.3159 31.4991 20.7 31.125 20.7 30.6629C20.7 30.3007 20.462 29.9953 20.1312 29.8791V29.8796Z" fill="white"/>
</svg>
